<svg width="3428" height="7976" viewBox="0 0 3428 7976" fill="none" xmlns="http://www.w3.org/2000/svg">
<path d="M1118.33 914.577L1223.96 1097.53L1435.21 1097.52L1540.83 914.578L1435.21 731.629L1223.96 731.629L1118.33 914.577Z" stroke="url(#paint0_linear_159_367)" stroke-width="5"/>
<path d="M1753.88 915.339L1859.51 1098.29L2070.76 1098.29L2176.38 915.34L2070.76 732.392L1859.51 732.392L1753.88 915.339Z" stroke="url(#paint1_linear_159_367)" stroke-width="5"/>
<path d="M1435.95 731.625L1541.57 914.574L1752.82 914.573L1858.45 731.626L1752.82 548.678L1541.57 548.678L1435.95 731.625Z" stroke="url(#paint2_linear_159_367)" stroke-width="5"/>
<path d="M1753.94 548.515L1859.57 731.464L2070.82 731.463L2176.44 548.516L2070.82 365.567L1859.57 365.568L1753.94 548.515Z" stroke="url(#paint3_linear_159_367)" stroke-width="5"/>
<path d="M482.244 1280.96L587.869 1463.91L799.119 1463.91L904.744 1280.96L799.118 1098.01L587.869 1098.01L482.244 1280.96Z" stroke="url(#paint4_linear_159_367)" stroke-width="5"/>
<path d="M482.138 1646.52L587.764 1829.46L799.013 1829.46L904.638 1646.52L799.013 1463.57L587.764 1463.57L482.138 1646.52Z" stroke="url(#paint5_linear_159_367)" stroke-width="5"/>
<path d="M482.244 913.974L587.869 1096.92L799.119 1096.92L904.744 913.975L799.118 731.026L587.869 731.027L482.244 913.974Z" stroke="url(#paint6_linear_159_367)" stroke-width="5"/>
<path d="M800.24 1097.85L905.865 1280.8L1117.12 1280.8L1222.74 1097.85L1117.11 914.9L905.866 914.901L800.24 1097.85Z" stroke="url(#paint7_linear_159_367)" stroke-width="5"/>
<path d="M165.138 1463.52L270.764 1646.46L482.013 1646.46L587.638 1463.52L482.013 1280.57L270.764 1280.57L165.138 1463.52Z" stroke="url(#paint8_linear_159_367)" stroke-width="5"/>
<path d="M165.138 1829.52L270.764 2012.46L482.013 2012.46L587.638 1829.52L482.013 1646.57L270.764 1646.57L165.138 1829.52Z" stroke="url(#paint9_linear_159_367)" stroke-width="5"/>
<path d="M1435.79 1098.61L1541.41 1281.56L1752.66 1281.56L1858.29 1098.61L1752.66 915.663L1541.41 915.664L1435.79 1098.61Z" stroke="url(#paint10_linear_159_367)" stroke-width="5"/>
<path d="M165.138 1097.78L270.764 1280.73L482.013 1280.72L587.638 1097.78L482.013 914.829L270.764 914.83L165.138 1097.78Z" stroke="url(#paint11_linear_159_367)" stroke-width="5"/>
<path d="M1435.33 2195.9L1540.96 2012.95L1752.21 2012.95L1857.83 2195.9L1752.21 2378.85L1540.96 2378.85L1435.33 2195.9Z" stroke="url(#paint12_linear_159_367)" stroke-width="5"/>
<path d="M1752.95 2378.85L1858.57 2195.9L2069.82 2195.9L2175.45 2378.85L2069.82 2561.8L1858.57 2561.8L1752.95 2378.85Z" stroke="url(#paint13_linear_159_367)" stroke-width="5"/>
<path d="M799.244 2196.5L904.869 2013.55L1116.12 2013.55L1221.74 2196.5L1116.12 2379.45L904.869 2379.45L799.244 2196.5Z" stroke="url(#paint14_linear_159_367)" stroke-width="5"/>
<path d="M1117.24 2012.63L1222.87 1829.68L1434.12 1829.68L1539.74 2012.63L1434.11 2195.58L1222.87 2195.58L1117.24 2012.63Z" stroke="url(#paint15_linear_159_367)" stroke-width="5"/>
<path d="M1857.25 4391.52L1751.63 4208.57L1540.38 4208.57L1434.75 4391.52L1540.38 4574.46L1751.63 4574.46L1857.25 4391.52Z" stroke="url(#paint16_linear_159_367)" stroke-width="5"/>
<path d="M1539.64 4574.47L1434.01 4391.52L1222.76 4391.52L1117.14 4574.47L1222.76 4757.42L1434.01 4757.42L1539.64 4574.47Z" stroke="url(#paint17_linear_159_367)" stroke-width="5"/>
<path d="M1858.35 4025.52L1752.72 3842.57L1541.47 3842.57L1435.85 4025.52L1541.47 4208.46L1752.72 4208.46L1858.35 4025.52Z" stroke="url(#paint18_linear_159_367)" stroke-width="5"/>
<path d="M1221.64 4757.74L1116.01 4574.79L904.762 4574.79L799.137 4757.74L904.762 4940.69L1116.01 4940.69L1221.64 4757.74Z" stroke="url(#paint19_linear_159_367)" stroke-width="5"/>
<path d="M905.637 4574.52L800.012 4391.57L588.762 4391.57L483.137 4574.52L588.762 4757.46L800.011 4757.46L905.637 4574.52Z" stroke="url(#paint20_linear_159_367)" stroke-width="5"/>
<path d="M588.637 4757.52L483.012 4574.57L271.762 4574.57L166.137 4757.52L271.762 4940.46L483.011 4940.46L588.637 4757.52Z" stroke="url(#paint21_linear_159_367)" stroke-width="5"/>
<path d="M1436.14 2561.52L1541.76 2378.57L1753.01 2378.57L1858.64 2561.52L1753.01 2744.46L1541.76 2744.46L1436.14 2561.52Z" stroke="url(#paint22_linear_159_367)" stroke-width="5"/>
<path d="M482.138 2012.7L587.764 1829.75L799.013 1829.75L904.638 2012.7L799.013 2195.65L587.764 2195.65L482.138 2012.7Z" stroke="url(#paint23_linear_159_367)" stroke-width="5"/>
<path d="M1753.24 3111.5L1858.87 3294.45L2070.12 3294.45L2175.74 3111.5L2070.12 2928.55L1858.87 2928.55L1753.24 3111.5Z" stroke="url(#paint24_linear_159_367)" stroke-width="5"/>
<path d="M1753.14 3477.06L1858.76 3660L2070.01 3660L2175.64 3477.06L2070.01 3294.11L1858.76 3294.11L1753.14 3477.06Z" stroke="url(#paint25_linear_159_367)" stroke-width="5"/>
<path d="M1753.24 2744.52L1858.87 2927.46L2070.12 2927.46L2175.74 2744.52L2070.12 2561.57L1858.87 2561.57L1753.24 2744.52Z" stroke="url(#paint26_linear_159_367)" stroke-width="5"/>
<path d="M1752.14 4209.52L1857.76 4392.46L2069.01 4392.46L2174.64 4209.52L2069.01 4026.57L1857.76 4026.57L1752.14 4209.52Z" stroke="url(#paint27_linear_159_367)" stroke-width="5"/>
<path d="M800.138 5855.52L905.764 5672.57L1117.01 5672.57L1222.64 5855.52L1117.01 6038.46L905.764 6038.46L800.138 5855.52Z" stroke="url(#paint28_linear_159_367)" stroke-width="5"/>
<path d="M1117.14 6037.52L1222.76 5854.57L1434.01 5854.57L1539.64 6037.52L1434.01 6220.46L1222.76 6220.46L1117.14 6037.52Z" stroke="url(#paint29_linear_159_367)" stroke-width="5"/>
<path d="M1435.14 6220.52L1540.76 6037.57L1752.01 6037.57L1857.64 6220.52L1752.01 6403.46L1540.76 6403.46L1435.14 6220.52Z" stroke="url(#paint30_linear_159_367)" stroke-width="5"/>
<path d="M905.637 5672.52L800.012 5855.46L588.762 5855.46L483.137 5672.52L588.762 5489.57L800.011 5489.57L905.637 5672.52Z" stroke="url(#paint31_linear_159_367)" stroke-width="5"/>
<path d="M1753.14 3843.24L1858.76 3660.29L2070.01 3660.29L2175.64 3843.24L2070.01 4026.19L1858.76 4026.19L1753.14 3843.24Z" stroke="url(#paint32_linear_159_367)" stroke-width="5"/>
<path d="M165.947 5123.52L271.572 4940.57L482.822 4940.57L588.447 5123.52L482.822 5306.46L271.573 5306.46L165.947 5123.52Z" stroke="url(#paint33_linear_159_367)" stroke-width="5"/>
<path d="M166.244 5489.18L271.869 5672.13L483.119 5672.13L588.744 5489.18L483.118 5306.23L271.869 5306.23L166.244 5489.18Z" stroke="url(#paint34_linear_159_367)" stroke-width="5"/>
<path d="M1540.16 6768.52L1434.54 6585.57L1223.29 6585.57L1117.66 6768.52L1223.29 6951.46L1434.54 6951.46L1540.16 6768.52Z" stroke="url(#paint35_linear_159_367)" stroke-width="5"/>
<path d="M1222.55 6951.47L1116.92 6768.52L905.672 6768.52L800.047 6951.47L905.673 7134.42L1116.92 7134.42L1222.55 6951.47Z" stroke="url(#paint36_linear_159_367)" stroke-width="5"/>
<path d="M1539.55 7134.52L1433.92 6951.57L1222.67 6951.57L1117.05 7134.52L1222.67 7317.46L1433.92 7317.46L1539.55 7134.52Z" stroke="url(#paint37_linear_159_367)" stroke-width="5"/>
<path d="M1435.05 6586.52L1540.67 6769.46L1751.92 6769.46L1857.55 6586.52L1751.92 6403.57L1540.67 6403.57L1435.05 6586.52Z" stroke="url(#paint38_linear_159_367)" stroke-width="5"/>
<path d="M2174.44 6403.18L2068.82 6586.13L1857.57 6586.13L1751.94 6403.18L1857.57 6220.23L2068.82 6220.23L2174.44 6403.18Z" stroke="url(#paint39_linear_159_367)" stroke-width="5"/>
<path d="M588.163 7682.52L482.537 7499.57L271.287 7499.57L165.662 7682.52L271.288 7865.46L482.537 7865.46L588.163 7682.52Z" stroke="url(#paint40_linear_159_367)" stroke-width="5"/>
<path d="M589.442 7316.18L483.816 7133.23L272.567 7133.23L166.942 7316.18L272.567 7499.13L483.816 7499.13L589.442 7316.18Z" stroke="url(#paint41_linear_159_367)" stroke-width="5"/>
<path d="M483.046 7500.52L588.672 7683.46L799.922 7683.46L905.547 7500.52L799.921 7317.57L588.672 7317.57L483.046 7500.52Z" stroke="url(#paint42_linear_159_367)" stroke-width="5"/>
<path d="M1222.44 7317.18L1116.82 7500.13L905.567 7500.13L799.942 7317.18L905.567 7134.24L1116.82 7134.24L1222.44 7317.18Z" stroke="url(#paint43_linear_159_367)" stroke-width="5"/>
<path d="M1751.94 6037.52L1857.57 5854.57L2068.82 5854.57L2174.44 6037.52L2068.82 6220.46L1857.57 6220.46L1751.94 6037.52Z" stroke="url(#paint44_linear_159_367)" stroke-width="5"/>
<path d="M391.754 773.132L277.49 773.132L220.358 872.087L277.49 971.042L391.754 971.042L448.886 872.087L391.754 773.132Z" fill="url(#paint45_linear_159_367)"/>
<path d="M1786.52 495.706L1725.11 495.706L1694.41 548.89L1725.11 602.074L1786.52 602.074L1817.23 548.89L1786.52 495.706Z" fill="url(#paint46_linear_159_367)"/>
<path d="M561.525 344.706L500.113 344.706L469.407 397.89L500.113 451.074L561.525 451.074L592.231 397.89L561.525 344.706Z" fill="url(#paint47_linear_159_367)"/>
<path d="M1849.58 2634.02L1775.53 2634.02L1738.51 2698.15L1775.53 2762.28L1849.58 2762.28L1886.61 2698.15L1849.58 2634.02Z" fill="url(#paint48_linear_159_367)"/>
<path d="M569.754 2971.13L455.49 2971.13L398.358 3070.09L455.49 3169.04L569.754 3169.04L626.886 3070.09L569.754 2971.13Z" fill="url(#paint49_linear_159_367)"/>
<path d="M783.754 4293.13L669.49 4293.13L612.358 4392.09L669.49 4491.04L783.754 4491.04L840.886 4392.09L783.754 4293.13Z" fill="url(#paint50_linear_159_367)"/>
<path d="M2076.58 4803.02L2002.53 4803.02L1965.51 4867.15L2002.53 4931.28L2076.58 4931.28L2113.61 4867.15L2076.58 4803.02Z" fill="url(#paint51_linear_159_367)"/>
<path d="M784.525 5227.71L723.113 5227.71L692.407 5280.89L723.113 5334.07L784.525 5334.07L815.231 5280.89L784.525 5227.71Z" fill="url(#paint52_linear_159_367)"/>
<path d="M1808.58 7226.02L1734.53 7226.02L1697.51 7290.15L1734.53 7354.28L1808.58 7354.28L1845.61 7290.15L1808.58 7226.02Z" fill="url(#paint53_linear_159_367)"/>
<path d="M1125.52 7578.71L1064.11 7578.71L1033.41 7631.89L1064.11 7685.07L1125.52 7685.07L1156.23 7631.89L1125.52 7578.71Z" fill="url(#paint54_linear_159_367)"/>
<g filter="url(#filter0_i_159_367)">
<path d="M2272.57 581.472L2855.67 1585.79L2277.46 2587.29L1116.14 2584.47L533.042 1580.15L1111.26 578.651L2272.57 581.472Z" fill="#323232"/>
</g>
<g filter="url(#filter1_i_159_367)">
<path d="M1459.14 2993.06L928.594 3906.86L1454.69 4818.1L2511.34 4815.53L3041.89 3901.73L2515.79 2990.5L1459.14 2993.06Z" fill="#323232"/>
</g>
<g filter="url(#filter2_i_159_367)">
<path d="M1007.14 5146.47L424.04 6150.79L1002.26 7152.29L2163.57 7149.47L2746.67 6145.15L2168.46 5143.65L1007.14 5146.47Z" fill="#323232"/>
</g>
<defs>
<filter id="filter0_i_159_367" x="533.041" y="578.651" width="2339.63" height="2025.64" filterUnits="userSpaceOnUse" color-interpolation-filters="sRGB">
<feFlood flood-opacity="0" result="BackgroundImageFix"/>
<feBlend mode="normal" in="SourceGraphic" in2="BackgroundImageFix" result="shape"/>
<feColorMatrix in="SourceAlpha" type="matrix" values="0 0 0 0 0 0 0 0 0 0 0 0 0 0 0 0 0 0 127 0" result="hardAlpha"/>
<feOffset dx="17" dy="17"/>
<feGaussianBlur stdDeviation="10"/>
<feComposite in2="hardAlpha" operator="arithmetic" k2="-1" k3="1"/>
<feColorMatrix type="matrix" values="0 0 0 0 0 0 0 0 0 0 0 0 0 0 0 0 0 0 0.4 0"/>
<feBlend mode="normal" in2="shape" result="effect1_innerShadow_159_367"/>
</filter>
<filter id="filter1_i_159_367" x="928.594" y="2990.5" width="2130.29" height="1844.6" filterUnits="userSpaceOnUse" color-interpolation-filters="sRGB">
<feFlood flood-opacity="0" result="BackgroundImageFix"/>
<feBlend mode="normal" in="SourceGraphic" in2="BackgroundImageFix" result="shape"/>
<feColorMatrix in="SourceAlpha" type="matrix" values="0 0 0 0 0 0 0 0 0 0 0 0 0 0 0 0 0 0 127 0" result="hardAlpha"/>
<feOffset dx="17" dy="17"/>
<feGaussianBlur stdDeviation="10"/>
<feComposite in2="hardAlpha" operator="arithmetic" k2="-1" k3="1"/>
<feColorMatrix type="matrix" values="0 0 0 0 0 0 0 0 0 0 0 0 0 0 0 0 0 0 0.4 0"/>
<feBlend mode="normal" in2="shape" result="effect1_innerShadow_159_367"/>
</filter>
<filter id="filter2_i_159_367" x="424.041" y="5143.65" width="2339.63" height="2025.64" filterUnits="userSpaceOnUse" color-interpolation-filters="sRGB">
<feFlood flood-opacity="0" result="BackgroundImageFix"/>
<feBlend mode="normal" in="SourceGraphic" in2="BackgroundImageFix" result="shape"/>
<feColorMatrix in="SourceAlpha" type="matrix" values="0 0 0 0 0 0 0 0 0 0 0 0 0 0 0 0 0 0 127 0" result="hardAlpha"/>
<feOffset dx="17" dy="17"/>
<feGaussianBlur stdDeviation="10"/>
<feComposite in2="hardAlpha" operator="arithmetic" k2="-1" k3="1"/>
<feColorMatrix type="matrix" values="0 0 0 0 0 0 0 0 0 0 0 0 0 0 0 0 0 0 0.4 0"/>
<feBlend mode="normal" in2="shape" result="effect1_innerShadow_159_367"/>
</filter>
<linearGradient id="paint0_linear_159_367" x1="1222.51" y1="729.13" x2="1436.65" y2="1100.03" gradientUnits="userSpaceOnUse">
<stop stop-color="#652435"/>
<stop offset="1" stop-color="#6C001D"/>
</linearGradient>
<linearGradient id="paint1_linear_159_367" x1="1858.06" y1="729.893" x2="2072.2" y2="1100.79" gradientUnits="userSpaceOnUse">
<stop stop-color="#652435"/>
<stop offset="1" stop-color="#6C001D"/>
</linearGradient>
<linearGradient id="paint2_linear_159_367" x1="1540.13" y1="546.179" x2="1754.27" y2="917.074" gradientUnits="userSpaceOnUse">
<stop stop-color="#652435"/>
<stop offset="1" stop-color="#6C001D"/>
</linearGradient>
<linearGradient id="paint3_linear_159_367" x1="1858.12" y1="363.068" x2="2072.26" y2="733.964" gradientUnits="userSpaceOnUse">
<stop stop-color="#652435"/>
<stop offset="1" stop-color="#6C001D"/>
</linearGradient>
<linearGradient id="paint4_linear_159_367" x1="586.425" y1="1095.51" x2="800.562" y2="1466.41" gradientUnits="userSpaceOnUse">
<stop stop-color="#652435"/>
<stop offset="1" stop-color="#6C001D"/>
</linearGradient>
<linearGradient id="paint5_linear_159_367" x1="586.32" y1="1461.07" x2="800.456" y2="1831.96" gradientUnits="userSpaceOnUse">
<stop stop-color="#652435"/>
<stop offset="1" stop-color="#6C001D"/>
</linearGradient>
<linearGradient id="paint6_linear_159_367" x1="586.425" y1="728.527" x2="800.562" y2="1099.42" gradientUnits="userSpaceOnUse">
<stop stop-color="#652435"/>
<stop offset="1" stop-color="#6C001D"/>
</linearGradient>
<linearGradient id="paint7_linear_159_367" x1="904.421" y1="912.401" x2="1118.56" y2="1283.3" gradientUnits="userSpaceOnUse">
<stop stop-color="#652435"/>
<stop offset="1" stop-color="#6C001D"/>
</linearGradient>
<linearGradient id="paint8_linear_159_367" x1="269.32" y1="1278.07" x2="483.456" y2="1648.96" gradientUnits="userSpaceOnUse">
<stop stop-color="#652435"/>
<stop offset="1" stop-color="#6C001D"/>
</linearGradient>
<linearGradient id="paint9_linear_159_367" x1="269.32" y1="1644.07" x2="483.456" y2="2014.96" gradientUnits="userSpaceOnUse">
<stop stop-color="#652435"/>
<stop offset="1" stop-color="#6C001D"/>
</linearGradient>
<linearGradient id="paint10_linear_159_367" x1="1539.97" y1="913.164" x2="1754.1" y2="1284.06" gradientUnits="userSpaceOnUse">
<stop stop-color="#652435"/>
<stop offset="1" stop-color="#6C001D"/>
</linearGradient>
<linearGradient id="paint11_linear_159_367" x1="269.32" y1="912.33" x2="483.456" y2="1283.23" gradientUnits="userSpaceOnUse">
<stop stop-color="#652435"/>
<stop offset="1" stop-color="#6C001D"/>
</linearGradient>
<linearGradient id="paint12_linear_159_367" x1="1539.51" y1="2381.35" x2="1753.65" y2="2010.45" gradientUnits="userSpaceOnUse">
<stop stop-color="#652435"/>
<stop offset="1" stop-color="#6C001D"/>
</linearGradient>
<linearGradient id="paint13_linear_159_367" x1="1857.13" y1="2564.3" x2="2071.27" y2="2193.4" gradientUnits="userSpaceOnUse">
<stop stop-color="#652435"/>
<stop offset="1" stop-color="#6C001D"/>
</linearGradient>
<linearGradient id="paint14_linear_159_367" x1="903.425" y1="2381.95" x2="1117.56" y2="2011.05" gradientUnits="userSpaceOnUse">
<stop stop-color="#652435"/>
<stop offset="1" stop-color="#6C001D"/>
</linearGradient>
<linearGradient id="paint15_linear_159_367" x1="1221.42" y1="2198.08" x2="1435.56" y2="1827.18" gradientUnits="userSpaceOnUse">
<stop stop-color="#652435"/>
<stop offset="1" stop-color="#6C001D"/>
</linearGradient>
<linearGradient id="paint16_linear_159_367" x1="1753.07" y1="4576.96" x2="1538.93" y2="4206.07" gradientUnits="userSpaceOnUse">
<stop stop-color="#652435"/>
<stop offset="1" stop-color="#6C001D"/>
</linearGradient>
<linearGradient id="paint17_linear_159_367" x1="1435.46" y1="4759.92" x2="1221.32" y2="4389.02" gradientUnits="userSpaceOnUse">
<stop stop-color="#652435"/>
<stop offset="1" stop-color="#6C001D"/>
</linearGradient>
<linearGradient id="paint18_linear_159_367" x1="1754.16" y1="4210.96" x2="1540.03" y2="3840.07" gradientUnits="userSpaceOnUse">
<stop stop-color="#652435"/>
<stop offset="1" stop-color="#6C001D"/>
</linearGradient>
<linearGradient id="paint19_linear_159_367" x1="1117.46" y1="4943.19" x2="903.319" y2="4572.29" gradientUnits="userSpaceOnUse">
<stop stop-color="#652435"/>
<stop offset="1" stop-color="#6C001D"/>
</linearGradient>
<linearGradient id="paint20_linear_159_367" x1="801.456" y1="4759.96" x2="587.319" y2="4389.07" gradientUnits="userSpaceOnUse">
<stop stop-color="#652435"/>
<stop offset="1" stop-color="#6C001D"/>
</linearGradient>
<linearGradient id="paint21_linear_159_367" x1="484.456" y1="4942.96" x2="270.319" y2="4572.07" gradientUnits="userSpaceOnUse">
<stop stop-color="#652435"/>
<stop offset="1" stop-color="#6C001D"/>
</linearGradient>
<linearGradient id="paint22_linear_159_367" x1="1540.32" y1="2746.96" x2="1754.46" y2="2376.07" gradientUnits="userSpaceOnUse">
<stop stop-color="#652435"/>
<stop offset="1" stop-color="#6C001D"/>
</linearGradient>
<linearGradient id="paint23_linear_159_367" x1="586.32" y1="2198.15" x2="800.456" y2="1827.25" gradientUnits="userSpaceOnUse">
<stop stop-color="#652435"/>
<stop offset="1" stop-color="#6C001D"/>
</linearGradient>
<linearGradient id="paint24_linear_159_367" x1="1857.43" y1="2926.05" x2="2071.56" y2="3296.95" gradientUnits="userSpaceOnUse">
<stop stop-color="#652435"/>
<stop offset="1" stop-color="#6C001D"/>
</linearGradient>
<linearGradient id="paint25_linear_159_367" x1="1857.32" y1="3291.61" x2="2071.46" y2="3662.5" gradientUnits="userSpaceOnUse">
<stop stop-color="#652435"/>
<stop offset="1" stop-color="#6C001D"/>
</linearGradient>
<linearGradient id="paint26_linear_159_367" x1="1857.43" y1="2559.07" x2="2071.56" y2="2929.96" gradientUnits="userSpaceOnUse">
<stop stop-color="#652435"/>
<stop offset="1" stop-color="#6C001D"/>
</linearGradient>
<linearGradient id="paint27_linear_159_367" x1="1856.32" y1="4024.07" x2="2070.46" y2="4394.96" gradientUnits="userSpaceOnUse">
<stop stop-color="#652435"/>
<stop offset="1" stop-color="#6C001D"/>
</linearGradient>
<linearGradient id="paint28_linear_159_367" x1="904.32" y1="6040.96" x2="1118.46" y2="5670.07" gradientUnits="userSpaceOnUse">
<stop stop-color="#652435"/>
<stop offset="1" stop-color="#6C001D"/>
</linearGradient>
<linearGradient id="paint29_linear_159_367" x1="1221.32" y1="6222.96" x2="1435.46" y2="5852.07" gradientUnits="userSpaceOnUse">
<stop stop-color="#652435"/>
<stop offset="1" stop-color="#6C001D"/>
</linearGradient>
<linearGradient id="paint30_linear_159_367" x1="1539.32" y1="6405.96" x2="1753.46" y2="6035.07" gradientUnits="userSpaceOnUse">
<stop stop-color="#652435"/>
<stop offset="1" stop-color="#6C001D"/>
</linearGradient>
<linearGradient id="paint31_linear_159_367" x1="801.456" y1="5487.07" x2="587.319" y2="5857.96" gradientUnits="userSpaceOnUse">
<stop stop-color="#652435"/>
<stop offset="1" stop-color="#6C001D"/>
</linearGradient>
<linearGradient id="paint32_linear_159_367" x1="1857.32" y1="4028.69" x2="2071.46" y2="3657.79" gradientUnits="userSpaceOnUse">
<stop stop-color="#652435"/>
<stop offset="1" stop-color="#6C001D"/>
</linearGradient>
<linearGradient id="paint33_linear_159_367" x1="270.128" y1="5308.96" x2="484.265" y2="4938.07" gradientUnits="userSpaceOnUse">
<stop stop-color="#652435"/>
<stop offset="1" stop-color="#6C001D"/>
</linearGradient>
<linearGradient id="paint34_linear_159_367" x1="270.425" y1="5303.73" x2="484.562" y2="5674.63" gradientUnits="userSpaceOnUse">
<stop stop-color="#652435"/>
<stop offset="1" stop-color="#6C001D"/>
</linearGradient>
<linearGradient id="paint35_linear_159_367" x1="1435.98" y1="6953.96" x2="1221.84" y2="6583.07" gradientUnits="userSpaceOnUse">
<stop stop-color="#652435"/>
<stop offset="1" stop-color="#6C001D"/>
</linearGradient>
<linearGradient id="paint36_linear_159_367" x1="1118.37" y1="7136.92" x2="904.229" y2="6766.02" gradientUnits="userSpaceOnUse">
<stop stop-color="#652435"/>
<stop offset="1" stop-color="#6C001D"/>
</linearGradient>
<linearGradient id="paint37_linear_159_367" x1="1435.37" y1="7319.96" x2="1221.23" y2="6949.07" gradientUnits="userSpaceOnUse">
<stop stop-color="#652435"/>
<stop offset="1" stop-color="#6C001D"/>
</linearGradient>
<linearGradient id="paint38_linear_159_367" x1="1539.23" y1="6401.07" x2="1753.36" y2="6771.96" gradientUnits="userSpaceOnUse">
<stop stop-color="#652435"/>
<stop offset="1" stop-color="#6C001D"/>
</linearGradient>
<linearGradient id="paint39_linear_159_367" x1="2070.26" y1="6217.74" x2="1856.12" y2="6588.63" gradientUnits="userSpaceOnUse">
<stop stop-color="#652435"/>
<stop offset="1" stop-color="#6C001D"/>
</linearGradient>
<linearGradient id="paint40_linear_159_367" x1="483.981" y1="7867.96" x2="269.844" y2="7497.07" gradientUnits="userSpaceOnUse">
<stop stop-color="#652435"/>
<stop offset="1" stop-color="#6C001D"/>
</linearGradient>
<linearGradient id="paint41_linear_159_367" x1="485.26" y1="7501.63" x2="271.124" y2="7130.73" gradientUnits="userSpaceOnUse">
<stop stop-color="#652435"/>
<stop offset="1" stop-color="#6C001D"/>
</linearGradient>
<linearGradient id="paint42_linear_159_367" x1="587.228" y1="7315.07" x2="801.365" y2="7685.96" gradientUnits="userSpaceOnUse">
<stop stop-color="#652435"/>
<stop offset="1" stop-color="#6C001D"/>
</linearGradient>
<linearGradient id="paint43_linear_159_367" x1="1118.26" y1="7131.74" x2="904.124" y2="7502.63" gradientUnits="userSpaceOnUse">
<stop stop-color="#652435"/>
<stop offset="1" stop-color="#6C001D"/>
</linearGradient>
<linearGradient id="paint44_linear_159_367" x1="1856.12" y1="6222.96" x2="2070.26" y2="5852.07" gradientUnits="userSpaceOnUse">
<stop stop-color="#652435"/>
<stop offset="1" stop-color="#6C001D"/>
</linearGradient>
<linearGradient id="paint45_linear_159_367" x1="334.921" y1="771.309" x2="334.922" y2="1381.09" gradientUnits="userSpaceOnUse">
<stop stop-color="#800000"/>
<stop offset="1" stop-color="#1A0000"/>
</linearGradient>
<linearGradient id="paint46_linear_159_367" x1="1755.98" y1="494.726" x2="1755.98" y2="822.458" gradientUnits="userSpaceOnUse">
<stop stop-color="#800000"/>
<stop offset="1" stop-color="#1A0000"/>
</linearGradient>
<linearGradient id="paint47_linear_159_367" x1="530.98" y1="343.726" x2="530.98" y2="671.458" gradientUnits="userSpaceOnUse">
<stop stop-color="#800000"/>
<stop offset="1" stop-color="#1A0000"/>
</linearGradient>
<linearGradient id="paint48_linear_159_367" x1="1812.75" y1="2632.84" x2="1812.75" y2="3028.01" gradientUnits="userSpaceOnUse">
<stop stop-color="#800000"/>
<stop offset="1" stop-color="#1A0000"/>
</linearGradient>
<linearGradient id="paint49_linear_159_367" x1="512.921" y1="2969.31" x2="512.922" y2="3579.09" gradientUnits="userSpaceOnUse">
<stop stop-color="#800000"/>
<stop offset="1" stop-color="#1A0000"/>
</linearGradient>
<linearGradient id="paint50_linear_159_367" x1="726.921" y1="4291.31" x2="726.922" y2="4901.09" gradientUnits="userSpaceOnUse">
<stop stop-color="#800000"/>
<stop offset="1" stop-color="#1A0000"/>
</linearGradient>
<linearGradient id="paint51_linear_159_367" x1="2039.75" y1="4801.84" x2="2039.75" y2="5197.01" gradientUnits="userSpaceOnUse">
<stop stop-color="#800000"/>
<stop offset="1" stop-color="#1A0000"/>
</linearGradient>
<linearGradient id="paint52_linear_159_367" x1="753.98" y1="5226.73" x2="753.98" y2="5554.46" gradientUnits="userSpaceOnUse">
<stop stop-color="#800000"/>
<stop offset="1" stop-color="#1A0000"/>
</linearGradient>
<linearGradient id="paint53_linear_159_367" x1="1771.75" y1="7224.84" x2="1771.75" y2="7620.01" gradientUnits="userSpaceOnUse">
<stop stop-color="#800000"/>
<stop offset="1" stop-color="#1A0000"/>
</linearGradient>
<linearGradient id="paint54_linear_159_367" x1="1094.98" y1="7577.73" x2="1094.98" y2="7905.46" gradientUnits="userSpaceOnUse">
<stop stop-color="#800000"/>
<stop offset="1" stop-color="#1A0000"/>
</linearGradient>
</defs>
</svg>
